<?xml version="1.0" encoding="UTF-8"?>
<svg xmlns="http://www.w3.org/2000/svg" xmlns:xlink="http://www.w3.org/1999/xlink" width="391.4pt" height="84.2pt" viewBox="0 0 391.4 84.2" version="1.1">
<defs>
<clipPath id="clip1">
  <path d="M 0 0 L 391.398438 0 L 391.398438 84.199219 L 0 84.199219 Z M 0 0 "/>
</clipPath>
</defs>
<g id="surface1">
<g clip-path="url(#clip1)" clip-rule="nonzero">
<path style=" stroke:none;fill-rule:evenodd;fill:rgb(59.568787%,10.984802%,11.767578%);fill-opacity:1;" d="M 0.015625 84.113281 L 391.472656 84.113281 L 391.472656 -0.0390625 L 0.015625 -0.0390625 Z M 0.015625 84.113281 "/>
</g>
<path style=" stroke:none;fill-rule:evenodd;fill:rgb(100%,100%,100%);fill-opacity:1;" d="M 65.957031 49.804688 L 63.890625 60.222656 L 54.851563 60.222656 C 55.539063 56.777344 56.230469 53.078125 57.003906 49.546875 C 57.175781 48.769531 57.347656 47.996094 57.519531 47.136719 C 57.519531 46.53125 57.605469 45.929688 57.691406 45.332031 C 58.035156 41.109375 55.023438 40.335938 52.097656 41.628906 C 50.375 42.3125 49.597656 43.519531 48.738281 45.070313 C 47.964844 46.445313 47.707031 47.738281 47.359375 49.464844 L 45.121094 60.222656 L 36.167969 60.222656 L 41.421875 34.566406 C 44.175781 34.480469 46.929688 34.394531 49.683594 34.308594 C 49.339844 35.941406 48.910156 37.492188 48.652344 39.128906 C 52.011719 35.085938 56.316406 33.015625 61.308594 34.480469 C 66.300781 35.855469 67.335938 40.851563 66.558594 45.671875 C 66.472656 47.136719 66.300781 48.425781 65.957031 49.804688 Z M 65.957031 49.804688 "/>
<path style=" stroke:none;fill-rule:evenodd;fill:rgb(100%,100%,100%);fill-opacity:1;" d="M 229.28125 22.941406 L 238.0625 22.941406 L 230.226563 60.308594 C 227.472656 60.308594 224.886719 60.308594 222.132813 60.308594 C 222.476563 58.929688 222.824219 57.550781 223.253906 56.175781 C 221.617188 57.726563 220.238281 59.015625 218.429688 59.878906 L 218.429688 54.28125 C 219.121094 54.109375 219.808594 53.851563 220.410156 53.507813 C 222.996094 51.871094 224.027344 48.941406 224.027344 46.015625 L 223.855469 44.550781 C 223.683594 43.175781 223.082031 41.96875 221.53125 41.28125 C 220.671875 40.765625 219.464844 40.765625 218.429688 40.9375 L 218.429688 34.308594 C 218.949219 34.308594 219.378906 34.480469 219.808594 34.480469 C 222.304688 35.085938 224.457031 36.71875 225.664063 39.214844 Z M 218.429688 59.878906 C 217.828125 60.222656 217.140625 60.394531 216.367188 60.566406 C 213.953125 61.167969 212.578125 61.339844 210.082031 60.394531 C 207.152344 59.359375 205.691406 57.378906 204.570313 54.714844 C 201.988281 48.167969 204.828125 38.871094 211.199219 35.683594 C 213.265625 34.652344 215.933594 34.050781 218.429688 34.308594 L 218.429688 40.9375 C 217.742188 41.023438 216.96875 41.28125 216.453125 41.628906 C 214.988281 42.570313 214.039063 43.953125 213.523438 45.589844 C 212.921875 47.222656 212.578125 49.546875 213.09375 51.269531 C 213.265625 52.128906 213.609375 52.730469 214.125 53.246094 C 215.332031 54.28125 216.96875 54.539063 218.429688 54.28125 Z M 218.429688 59.878906 "/>
<path style=" stroke:none;fill-rule:evenodd;fill:rgb(100%,100%,100%);fill-opacity:1;" d="M 156.269531 34.910156 L 154.464844 40.417969 C 151.964844 39.730469 150.160156 39.386719 147.574219 39.214844 C 146.800781 39.214844 146.199219 39.128906 145.59375 39.300781 C 143.789063 39.730469 143.011719 41.367188 144.390625 42.570313 C 146.113281 44.292969 149.125 44.726563 151.277344 46.101563 C 151.792969 46.445313 152.398438 46.964844 153 47.480469 C 154.722656 50.148438 154.464844 52.988281 152.65625 55.746094 C 149.8125 59.964844 144.390625 60.394531 139.484375 60.050781 C 136.8125 59.878906 134.574219 59.359375 131.90625 58.84375 L 133.542969 52.644531 C 136.8125 53.507813 138.878906 54.28125 141.980469 53.9375 C 143.355469 53.851563 145.335938 53.9375 145.335938 52.042969 C 144.992188 50.664063 143.703125 49.804688 142.324219 49.207031 C 140.257813 48.253906 138.019531 47.652344 136.382813 46.015625 C 135.4375 44.636719 135.175781 43.605469 135.175781 41.882813 C 135.175781 40.160156 135.695313 38.960938 136.46875 37.839844 C 140.859375 31.550781 149.898438 33.359375 156.269531 34.910156 Z M 156.269531 34.910156 "/>
<path style=" stroke:none;fill-rule:evenodd;fill:rgb(100%,100%,100%);fill-opacity:1;" d="M 105.214844 34.308594 L 114.34375 34.136719 C 113.652344 37.320313 112.964844 40.503906 112.277344 43.863281 C 111.847656 46.015625 110.984375 48.769531 111.589844 50.921875 C 111.933594 52.128906 112.363281 52.558594 113.480469 52.902344 C 114.773438 53.335938 116.410156 53.078125 117.441406 52.300781 C 120.542969 50.0625 121.402344 46.359375 122.175781 42.746094 L 124.070313 34.136719 L 132.941406 34.136719 L 127.429688 60.222656 C 124.847656 60.308594 122.265625 60.136719 119.59375 60.222656 C 119.851563 58.757813 120.199219 56.605469 120.542969 55.140625 C 119.59375 56.003906 118.820313 56.953125 117.785156 57.726563 C 116.496094 58.757813 114.945313 59.445313 113.308594 59.878906 C 111.414063 60.308594 108.832031 60.308594 107.023438 59.53125 C 105.042969 58.757813 103.582031 56.953125 102.804688 54.96875 C 101.773438 52.300781 102.203125 50.492188 102.632813 47.738281 C 103.324219 43.261719 104.269531 38.703125 105.214844 34.308594 Z M 105.214844 34.308594 "/>
<path style=" stroke:none;fill-rule:evenodd;fill:rgb(100%,100%,100%);fill-opacity:1;" d="M 95.058594 22.941406 L 103.839844 22.941406 L 95.917969 60.308594 C 93.25 60.308594 90.582031 60.308594 87.824219 60.308594 C 88.167969 58.929688 88.601563 57.550781 88.945313 56.175781 C 87.394531 57.726563 85.929688 59.015625 84.210938 59.878906 L 84.210938 54.28125 C 84.898438 54.109375 85.585938 53.851563 86.191406 53.507813 C 88.6875 51.871094 89.71875 48.941406 89.71875 46.015625 L 89.632813 44.550781 C 89.460938 43.175781 88.773438 41.96875 87.222656 41.28125 C 86.363281 40.765625 85.15625 40.765625 84.210938 40.9375 L 84.210938 34.308594 C 84.640625 34.308594 85.070313 34.480469 85.585938 34.480469 C 87.996094 35.085938 90.148438 36.71875 91.441406 39.214844 Z M 84.210938 59.878906 C 83.519531 60.222656 82.832031 60.394531 82.144531 60.566406 C 79.734375 61.167969 78.269531 61.339844 75.773438 60.394531 C 72.929688 59.359375 71.382813 57.378906 70.261719 54.714844 C 67.765625 48.167969 70.605469 38.871094 76.890625 35.683594 C 78.957031 34.652344 81.710938 34.050781 84.210938 34.308594 L 84.210938 40.9375 C 83.433594 41.023438 82.746094 41.28125 82.144531 41.628906 C 80.765625 42.570313 79.734375 43.953125 79.214844 45.589844 C 78.613281 47.222656 78.269531 49.546875 78.785156 51.269531 C 78.957031 52.128906 79.300781 52.730469 79.90625 53.246094 C 81.109375 54.28125 82.660156 54.539063 84.210938 54.28125 Z M 84.210938 59.878906 "/>
<path style=" stroke:none;fill-rule:evenodd;fill:rgb(100%,100%,100%);fill-opacity:1;" d="M 29.539063 22.941406 L 38.75 22.941406 L 31.089844 60.222656 L 21.789063 60.222656 Z M 29.539063 22.941406 "/>
<path style=" stroke:none;fill-rule:evenodd;fill:rgb(100%,100%,100%);fill-opacity:1;" d="M 200.351563 49.804688 L 198.199219 60.222656 L 189.074219 60.222656 C 189.847656 56.777344 190.621094 53.078125 191.3125 49.546875 C 191.484375 48.769531 191.65625 47.996094 191.914063 47.222656 C 191.914063 46.53125 191.914063 45.929688 192 45.332031 C 192.429688 41.109375 189.246094 40.335938 186.402344 41.628906 C 184.769531 42.398438 183.992188 43.519531 183.132813 45.070313 C 182.273438 46.445313 182.015625 47.828125 181.753906 49.464844 L 179.429688 60.222656 L 170.648438 60.222656 L 175.726563 34.566406 C 178.484375 34.480469 181.238281 34.480469 183.992188 34.308594 C 183.648438 35.941406 183.304688 37.492188 182.960938 39.128906 C 186.320313 35.085938 190.621094 33.015625 195.617188 34.480469 C 200.609375 35.855469 201.644531 40.851563 200.953125 45.757813 C 200.78125 47.136719 200.609375 48.425781 200.351563 49.804688 Z M 200.351563 49.804688 "/>
<path style=" stroke:none;fill-rule:evenodd;fill:rgb(100%,100%,100%);fill-opacity:1;" d="M 163.332031 22.941406 L 172.628906 22.941406 L 164.964844 60.222656 L 155.667969 60.222656 Z M 163.332031 22.941406 "/>
<path style=" stroke:none;fill-rule:evenodd;fill:rgb(100%,100%,100%);fill-opacity:1;" d="M 335.691406 50.0625 L 333.539063 60.566406 L 324.414063 60.566406 C 325.101563 57.035156 325.964844 53.246094 326.652344 49.804688 C 326.824219 48.941406 326.996094 48.167969 327.167969 47.308594 C 327.167969 46.707031 327.253906 46.101563 327.34375 45.503906 C 327.6875 41.28125 324.585938 40.503906 321.660156 41.796875 C 320.023438 42.484375 319.25 43.691406 318.300781 45.242188 C 317.527344 46.617188 317.269531 47.910156 316.925781 49.632813 L 314.6875 60.480469 L 305.730469 60.480469 L 310.898438 34.652344 C 313.652344 34.566406 316.492188 34.480469 319.25 34.394531 C 318.902344 36.027344 318.558594 37.664063 318.214844 39.214844 C 321.488281 35.167969 325.964844 33.101563 330.871094 34.480469 C 336.039063 35.941406 336.984375 41.023438 336.296875 45.84375 C 336.210938 47.308594 335.953125 48.597656 335.691406 50.0625 Z M 335.691406 50.0625 "/>
<path style=" stroke:none;fill-rule:evenodd;fill:rgb(100%,100%,100%);fill-opacity:1;" d="M 346.023438 22.941406 L 355.066406 22.941406 L 350.414063 45.15625 L 359.542969 34.480469 L 369.699219 34.480469 L 359.023438 46.273438 L 365.742188 60.394531 L 356.097656 60.394531 L 350.15625 46.707031 L 347.316406 60.394531 L 338.449219 60.394531 Z M 346.023438 22.941406 "/>
<path style=" stroke:none;fill-rule:evenodd;fill:rgb(100%,100%,100%);fill-opacity:1;" d="M 304.097656 46.707031 C 303.320313 50.40625 302.546875 54.023438 301.859375 57.636719 L 301.511719 60.566406 L 294.023438 60.566406 L 294.539063 56.605469 C 293.25 57.898438 291.871094 59.015625 290.40625 59.792969 L 290.40625 55.316406 C 290.492188 55.226563 290.664063 55.226563 290.835938 55.140625 C 291.785156 54.628906 292.472656 54.28125 292.988281 53.765625 C 294.195313 52.472656 294.796875 50.492188 295.316406 48.855469 L 294.023438 48.855469 C 292.90625 48.855469 291.613281 48.769531 290.40625 48.855469 L 290.40625 44.550781 C 292.214844 44.378906 294.28125 44.464844 296.347656 44.464844 C 296.347656 42.226563 295.488281 40.503906 293.160156 39.988281 C 292.128906 39.816406 291.183594 39.816406 290.40625 39.816406 L 290.40625 34.480469 C 296.003906 33.789063 301.945313 34.738281 304.011719 39.816406 C 305.042969 42.398438 304.441406 44.035156 304.097656 46.707031 Z M 290.40625 59.789063 C 289.03125 60.480469 287.480469 60.910156 286.015625 61.085938 C 282.660156 61.425781 279.128906 59.878906 277.664063 56.777344 C 276.632813 55.054688 276.890625 53.160156 277.320313 51.179688 C 277.75 49.289063 278.613281 48.253906 280.851563 46.707031 C 284.035156 45.15625 287.136719 44.636719 290.40625 44.550781 L 290.40625 48.855469 C 289.117188 48.941406 287.824219 49.289063 286.964844 49.890625 C 285.242188 51.179688 284.550781 53.59375 286.445313 55.054688 C 287.566406 55.835938 289.117188 55.746094 290.40625 55.316406 Z M 290.40625 39.816406 C 289.203125 39.816406 288.167969 39.902344 286.792969 40.246094 C 285.242188 40.59375 284.121094 41.109375 282.660156 41.796875 L 283.691406 35.769531 C 285.757813 35.253906 287.996094 34.738281 290.40625 34.480469 Z M 290.40625 39.816406 "/>
<path style=" stroke:none;fill-rule:evenodd;fill:rgb(100%,100%,100%);fill-opacity:1;" d="M 259.929688 25.960938 C 261.480469 25.960938 263.027344 25.960938 264.664063 25.960938 C 268.796875 25.960938 275.167969 26.558594 276.375 31.378906 C 276.632813 32.15625 276.71875 32.929688 276.71875 33.707031 C 276.71875 33.707031 276.71875 33.707031 276.71875 33.789063 C 276.71875 36.632813 275.339844 39.128906 272.757813 40.851563 C 270.949219 41.714844 269.398438 42.140625 267.59375 42.660156 C 272.242188 43.433594 275.253906 46.617188 274.308594 51.703125 C 272.929688 58.757813 266.300781 59.878906 259.929688 60.308594 L 259.929688 54.109375 C 260.273438 54.109375 260.617188 54.023438 260.875 53.9375 C 266.214844 53.078125 267.417969 46.878906 262.339844 45.757813 C 261.566406 45.589844 260.789063 45.503906 259.929688 45.589844 L 259.929688 40.078125 C 260.964844 40.078125 262.082031 39.988281 263.027344 39.816406 C 265.871094 39.128906 269.65625 36.203125 266.558594 32.929688 C 265.269531 31.550781 262.167969 31.722656 259.929688 31.894531 Z M 251.320313 25.960938 C 254.160156 25.960938 257.089844 25.960938 259.929688 25.960938 L 259.929688 31.894531 C 259.671875 31.894531 259.414063 31.894531 259.15625 31.894531 L 257.347656 39.988281 C 258.121094 39.988281 259.070313 40.078125 259.929688 40.078125 L 259.929688 45.589844 C 258.722656 45.589844 257.433594 45.757813 256.226563 45.84375 L 254.417969 54.457031 C 255.96875 54.367188 258.035156 54.367188 259.929688 54.109375 L 259.929688 60.308594 C 259.414063 60.394531 258.808594 60.394531 258.292969 60.480469 L 244.347656 60.480469 Z M 251.320313 25.960938 "/>
</g>
</svg>
